<svg width="184" height="25" viewBox="0 0 184 25" fill="none" xmlns="http://www.w3.org/2000/svg">
<g clip-path="url(#clip0_5_235)">
<path d="M0.694662 7.20145H11.0856C11.3763 7.20145 11.6637 7.21984 11.9444 7.25555C11.9731 7.2588 12.0017 7.26096 12.0314 7.26096H12.7405C14.0805 7.26096 15.382 7.51959 16.6075 8.02926C17.7912 8.52054 18.8526 9.22499 19.7643 10.1199C20.0517 10.4023 20.3204 10.701 20.5692 11.0116C21.2266 11.8361 22.4961 11.8361 23.1535 11.0116C23.4012 10.6999 23.6699 10.4023 23.9584 10.1199C24.8701 9.22391 25.9315 8.52054 27.1152 8.02926C28.3418 7.51959 29.6433 7.26096 30.9822 7.26096H31.6913C31.7199 7.26096 31.7485 7.2588 31.7783 7.25555C32.059 7.21984 32.3464 7.20145 32.6371 7.20145H43.0281C43.5037 7.20145 43.8385 6.74155 43.6854 6.29897L41.6682 0.463143C41.5724 0.186123 41.3082 0 41.0109 0H30.9833C27.1537 0 24.009 2.88815 23.6831 6.56949C23.6512 6.92551 23.355 7.20145 22.9916 7.20145H20.7333C20.3699 7.20145 20.0726 6.92551 20.0418 6.56949C19.8877 4.83379 19.107 3.27338 17.9233 2.11012C16.5965 0.806172 14.7643 0 12.7405 0H2.71295C2.41566 0 2.1514 0.186123 2.0556 0.463143L0.0373149 6.29897C-0.115736 6.74155 0.218994 7.20145 0.694662 7.20145Z" fill="#3A63ED"/>
<path d="M41.6683 10.2855C41.5725 10.0084 41.3083 9.82231 41.011 9.82231H30.9834C29.2404 9.82231 27.6383 10.4207 26.3809 11.4195C25.1928 12.3642 24.3108 13.6649 23.9045 15.1571C23.7955 15.5575 23.7207 15.973 23.6832 16.3983C23.6524 16.7521 23.3518 17.0238 22.9917 17.0238H20.7356C20.3745 17.0238 20.075 16.7521 20.0441 16.3983C20.0067 15.973 19.9318 15.5586 19.8228 15.1571C19.4165 13.6649 18.5346 12.3642 17.3465 11.4206C16.0879 10.4207 14.487 9.82231 12.7429 9.82231H2.71307C2.41578 9.82231 2.15152 10.0084 2.05572 10.2855L0.037437 16.1202C-0.115614 16.5628 0.219116 17.0227 0.694784 17.0227H11.0857C14.7887 17.0227 17.7913 19.9725 17.7913 23.6127V24.2955C17.7913 24.6721 18.1018 24.9784 18.4861 24.9784H25.2369C25.62 24.9784 25.9316 24.6732 25.9316 24.2955C25.9316 20.2787 29.2448 17.0227 33.332 17.0227H43.0282C43.5038 17.0227 43.8386 16.5628 43.6855 16.1202L41.6683 10.2844V10.2855Z" fill="#3A63ED"/>
<path d="M49.6699 19.0462C49.2911 18.8807 49.0709 18.6404 49.0071 18.3223C48.9443 18.0052 49.0313 17.6059 49.2702 17.1233C49.4387 16.7511 49.6347 16.5065 49.8593 16.3897C50.0839 16.2728 50.357 16.2836 50.6796 16.421C52.5019 17.1374 54.017 17.4956 55.2227 17.4956C55.9384 17.4956 56.5087 17.3614 56.9371 17.0919C57.3643 16.8236 57.579 16.407 57.579 15.841C57.579 15.3584 57.4733 14.9862 57.263 14.7243C57.0527 14.4624 56.7609 14.2633 56.3898 14.1248C56.0177 13.9874 55.3768 13.7937 54.4651 13.5459C54.213 13.4636 53.9741 13.4009 53.7494 13.3597C52.7254 13.0708 51.8985 12.7841 51.2676 12.5016C50.6367 12.2192 50.107 11.7983 49.6798 11.241C49.2515 10.6826 49.0379 9.93486 49.0379 8.99776C49.0379 7.99139 49.2724 7.14086 49.7426 6.44506C50.2127 5.74926 50.8855 5.21903 51.762 4.85327C52.6384 4.4886 53.679 4.30573 54.8857 4.30573C55.923 4.30573 56.8556 4.42692 57.6836 4.66715C58.5105 4.90846 59.191 5.19414 59.7239 5.52526C60.1864 5.81419 60.4495 6.08688 60.5123 6.34226C60.5751 6.59764 60.4947 6.94499 60.2701 7.38649C60.1159 7.68949 59.9507 7.90699 59.7757 8.03792C59.6006 8.16886 59.4002 8.23054 59.1767 8.22405C58.9521 8.21755 58.6856 8.15912 58.3773 8.04875C58.2231 7.95244 57.9005 7.80094 57.4094 7.59426C56.9327 7.38758 56.4834 7.23283 56.0628 7.12895C55.6422 7.02507 55.2139 6.96664 54.78 6.95365C54.2614 6.95365 53.8122 7.03264 53.4334 7.19171C53.0546 7.35078 52.7739 7.57045 52.5922 7.85288C52.4094 8.13531 52.3676 8.45562 52.4656 8.8138C52.5636 9.21418 52.819 9.54747 53.233 9.81691C53.6459 10.0853 54.2813 10.3233 55.1368 10.53C56.3843 10.8471 57.3874 11.1706 58.145 11.5018C58.9025 11.8329 59.5257 12.322 60.0168 12.9691C60.5079 13.6173 60.7534 14.4851 60.7534 15.5737C60.7534 16.4286 60.5607 17.2066 60.1754 17.91C59.79 18.6134 59.158 19.175 58.2826 19.5949C57.4061 20.0147 56.2742 20.2182 54.8857 20.2052C53.091 20.1911 51.3524 19.8059 49.6688 19.0473L49.6699 19.0462Z" fill="#3A63ED"/>
<path d="M64.3419 19.6555C63.8299 19.3319 63.4621 18.9012 63.2375 18.3634C63.0129 17.8256 62.8653 17.1644 62.7959 16.3788C62.7541 15.7317 62.7464 14.5879 62.775 12.9475C62.775 12.4648 62.7816 11.8859 62.7959 11.2107H62.459C62.361 11.2107 62.2597 11.2074 62.154 11.1999C62.0483 11.1934 61.9547 11.176 61.8699 11.1479C61.7158 11.1068 61.5925 10.9823 61.5022 10.7757C61.4108 10.569 61.3722 10.3071 61.3866 9.99005C61.3866 9.57668 61.4284 9.28343 61.5132 9.11138C61.5969 8.93932 61.7587 8.84626 61.9966 8.83219L62.8378 8.77051C62.8521 8.35715 62.873 8.01953 62.9005 7.75766C62.9424 7.34429 63.0756 7.06186 63.3002 6.91036C63.5249 6.75887 63.8893 6.68312 64.3936 6.68312C64.9409 6.68312 65.3405 6.75238 65.5927 6.8898C65.8448 7.02723 65.9781 7.29668 65.9924 7.69598L66.0133 8.74995C66.5044 8.73588 67.034 8.72939 67.6011 8.72939C68.1681 8.72939 68.6493 8.74346 69.0424 8.77051C69.3507 8.79865 69.5577 8.88738 69.6634 9.03888C69.7691 9.19037 69.8209 9.43168 69.8209 9.76281C69.8209 9.87318 69.8275 9.96949 69.8418 10.0517C69.8275 10.3969 69.7823 10.648 69.7052 10.806C69.6282 10.965 69.4707 11.0711 69.2318 11.1263C69.049 11.1544 68.7484 11.175 68.3278 11.1879C67.9072 11.202 67.3324 11.2085 66.6024 11.2085H66.0551C66.0408 11.953 66.0375 12.6726 66.0441 13.3684C66.0507 14.0642 66.0551 14.7427 66.0551 15.4049V15.9005C66.0551 16.4524 66.1212 16.8615 66.2544 17.1309C66.3877 17.3993 66.6751 17.5551 67.1166 17.5962C67.5581 17.6373 68.2485 17.5205 69.1888 17.2445C69.3705 17.1893 69.5291 17.2175 69.6623 17.3268C69.7955 17.4371 69.8902 17.6092 69.9464 17.844C70.0025 18.0788 70.0169 18.3396 69.9882 18.6296C69.9178 19.1122 69.5533 19.4877 68.8948 19.7561C68.2353 20.0245 67.4018 20.1597 66.3921 20.1597C65.5365 20.1457 64.8528 19.9768 64.3408 19.6533L64.3419 19.6555Z" fill="#3A63ED"/>
<path d="M72.829 18.9835C72.1695 18.239 71.8259 17.158 71.7984 15.7382C71.7841 15.1182 71.7698 14.3942 71.7566 13.5675C71.7423 12.6163 71.7423 11.7139 71.7566 10.859C71.7698 10.0041 71.805 9.28127 71.8623 8.68828C71.8898 8.38529 72.0197 8.16129 72.251 8.01629C72.4822 7.87128 72.8433 7.79878 73.3344 7.79878C73.755 7.79878 74.0777 7.83016 74.3023 7.89184C74.5269 7.95352 74.6943 8.07147 74.8066 8.24353C74.9189 8.41559 74.9883 8.67421 75.0169 9.01832C75.0169 10.4651 75.0092 11.9606 74.996 13.5048C74.996 14.2211 75.0026 14.8141 75.0169 15.2827C75.0312 15.669 75.0653 16.0066 75.1226 16.2955C75.1787 16.5844 75.3153 16.8604 75.5333 17.1222C75.7502 17.3841 76.0695 17.5226 76.4901 17.5356C77.0792 17.5497 77.5769 17.4599 77.9832 17.2673C78.3895 17.0746 78.7154 16.8398 78.961 16.5639C79.2065 16.2879 79.4829 15.9027 79.7923 15.406C79.7923 14.3174 79.7989 13.1011 79.8132 11.7571C79.8275 10.4132 79.8407 9.44575 79.855 8.85276C79.8969 8.54977 79.974 8.32252 80.0863 8.17103C80.1986 8.01953 80.356 7.91998 80.5597 7.87128C80.7623 7.82367 81.0464 7.79878 81.412 7.79878C81.804 7.79878 82.1057 7.82259 82.316 7.87128C82.5263 7.91998 82.6947 8.01629 82.8203 8.16021C82.9469 8.30521 83.024 8.5357 83.0515 8.85276C83.0933 9.40463 83.1176 10.134 83.1253 11.044C83.1319 11.9541 83.1286 12.8219 83.1143 13.6487C83.0999 14.9028 83.0933 16.0261 83.0933 17.0184C83.0933 17.225 83.1143 17.4003 83.1561 17.5454C83.1979 17.6904 83.2541 17.818 83.3246 17.9273C83.3807 18.0096 83.4435 18.0994 83.5139 18.1957C83.5844 18.3342 83.6153 18.489 83.6086 18.661C83.602 18.8331 83.5415 18.9889 83.4303 19.1263C83.1363 19.4845 82.7399 19.7496 82.2422 19.9217C81.7445 20.0937 81.3063 20.1175 80.9275 19.9942C80.6467 19.9119 80.3979 19.7009 80.181 19.3633C79.963 19.0257 79.8473 18.5257 79.8341 17.8646C79.3849 18.3883 78.9676 18.8125 78.5822 19.1361C78.1968 19.4596 77.7619 19.7117 77.2785 19.8903C76.7951 20.0688 76.2512 20.1522 75.6478 20.1381C74.4278 20.11 73.4886 19.7247 72.829 18.9802V18.9835Z" fill="#3A63ED"/>
<path d="M88.2486 19.294C87.4074 18.7703 86.7688 18.0431 86.3349 17.1125C85.9 16.1819 85.6831 15.1312 85.6831 13.9603C85.6831 12.7202 85.9286 11.6349 86.4197 10.7042C86.9108 9.77362 87.5626 9.06051 88.3763 8.56491C89.1889 8.0693 90.0665 7.82799 91.0057 7.84097C91.7908 7.85504 92.4603 7.98922 93.0152 8.2446C93.569 8.49998 94.1119 8.94473 94.6448 9.57776C94.6591 8.65472 94.6723 7.49037 94.6866 6.08363C94.7285 5.72545 94.8056 5.44626 94.9179 5.24607C95.0302 5.04697 95.1876 4.90845 95.3913 4.83271C95.5939 4.75696 95.8648 4.71909 96.2017 4.71909C96.5662 4.71909 96.8569 4.75696 97.0749 4.83271C97.2918 4.90845 97.4603 5.04264 97.5792 5.23633C97.6981 5.43003 97.7719 5.71138 97.8005 6.08363C97.828 7.73709 97.8424 9.2607 97.8424 10.6523C97.8424 12.0439 97.828 13.6573 97.8005 15.4893V17.185C97.8148 17.3917 97.8424 17.5605 97.8842 17.6914C97.926 17.8224 97.9822 17.936 98.0527 18.0323C98.1088 18.1427 98.165 18.226 98.2211 18.2801C98.3048 18.4316 98.3367 18.5972 98.3158 18.7757C98.2949 18.9553 98.2068 19.1198 98.0527 19.2713C97.7587 19.5884 97.3931 19.8124 96.9593 19.9433C96.5244 20.0742 96.139 20.1056 95.802 20.0364C95.4651 19.9952 95.213 19.847 95.0445 19.5916C94.876 19.3362 94.778 18.9272 94.7505 18.3613C94.3156 18.9683 93.8003 19.4055 93.2046 19.6739C92.6078 19.9422 91.967 20.0764 91.2799 20.0764C90.1017 20.0764 89.092 19.8145 88.2508 19.2908L88.2486 19.294ZM93.6858 16.9578C94.0987 16.6688 94.3938 16.276 94.5688 15.7793C94.7439 15.2837 94.832 14.6842 94.832 13.9809C94.832 12.823 94.5754 11.9519 94.0645 11.3654C93.5525 10.78 92.8765 10.4867 92.0341 10.4867C91.052 10.4867 90.3054 10.7832 89.7934 11.3751C89.2814 11.9681 89.026 12.836 89.026 13.9798C89.026 15.0132 89.2781 15.8475 89.7835 16.4816C90.2878 17.1157 91.0388 17.4252 92.0341 17.4122C92.7212 17.3982 93.2718 17.2467 93.6858 16.9578Z" fill="#3A63ED"/>
<path d="M101.773 24.0694C101.507 23.8898 101.349 23.6798 101.3 23.4385C101.25 23.1972 101.338 22.8834 101.563 22.4982C101.717 22.2222 101.86 22.0296 101.995 21.9192C102.128 21.8089 102.285 21.7742 102.468 21.8154C102.566 21.8424 102.675 21.877 102.794 21.9192C102.913 21.9604 103.049 22.0015 103.205 22.0437C104.158 22.3607 104.958 22.5187 105.603 22.5187C106.332 22.5187 106.917 22.3294 107.359 21.9506C107.801 21.5719 108.12 21.0308 108.316 20.3275C108.512 19.6241 108.597 18.7768 108.568 17.7845C108.021 18.4597 107.52 18.9629 107.064 19.294C106.608 19.6252 106.107 19.8492 105.56 19.966C105.013 20.0829 104.403 20.1002 103.73 20.018C102.804 19.9217 102.04 19.5115 101.437 18.7876C100.834 18.0637 100.511 17.1374 100.47 16.0066C100.441 14.5457 100.434 13.2981 100.449 12.2647C100.462 11.2312 100.484 10.0799 100.511 8.81272C100.539 8.45454 100.659 8.19592 100.869 8.03793C101.08 7.87994 101.465 7.79986 102.026 7.79986C102.475 7.79986 102.805 7.83124 103.015 7.89292C103.226 7.9546 103.383 8.0758 103.489 8.25435C103.594 8.43398 103.66 8.71641 103.688 9.10164C103.716 10.3147 103.716 12.1196 103.688 14.5176V15.2827C103.73 15.7371 103.794 16.1267 103.877 16.4503C103.961 16.7738 104.115 17.0389 104.34 17.2467C104.677 17.5356 105.181 17.6254 105.854 17.5151C106.527 17.4047 107.133 17.1222 107.674 16.6678C108.213 16.2133 108.484 15.6625 108.484 15.0143V13.8564C108.484 11.7204 108.498 10.0939 108.526 8.9772C108.554 8.52271 108.68 8.21539 108.905 8.0574C109.13 7.89942 109.494 7.81285 109.998 7.79878C110.433 7.7858 110.759 7.8096 110.976 7.87128C111.193 7.93296 111.355 8.05091 111.459 8.22297C111.565 8.39502 111.638 8.64716 111.681 8.9772C111.723 9.5702 111.747 11.0062 111.755 13.2872C111.761 15.5683 111.73 17.1915 111.66 18.1557C111.66 18.4035 111.646 18.6513 111.618 18.9002C111.534 20.0028 111.32 20.9875 110.976 21.8565C110.633 22.7243 110.037 23.4548 109.188 24.0478C108.339 24.6397 107.18 24.9502 105.706 24.9784C104.066 25.0195 102.754 24.7165 101.773 24.0683V24.0694Z" fill="#3A63ED"/>
<path d="M117.308 19.8005C116.642 19.7799 116.064 19.7074 115.573 19.583C115.25 19.4867 115.016 19.3557 114.868 19.1902C114.721 19.0246 114.64 18.8114 114.626 18.5495C114.543 17.0194 114.496 14.8834 114.49 12.1413C114.482 9.39922 114.507 7.40705 114.563 6.16695C114.578 5.75359 114.665 5.44735 114.827 5.24716C114.987 5.04805 115.244 4.88573 115.594 4.76129C115.986 4.62386 116.548 4.54379 117.276 4.52323C118.005 4.50267 118.819 4.50591 119.716 4.53405H120.074C121.659 4.56218 123.001 4.84137 124.102 5.3716C125.203 5.90183 125.754 6.94607 125.754 8.50323C125.754 9.21959 125.582 9.87102 125.238 10.4564C124.895 11.0419 124.365 11.5147 123.651 11.8729C124.604 12.3144 125.285 12.81 125.691 13.3608C126.097 13.9127 126.301 14.6842 126.301 15.6765C126.301 16.7792 125.993 17.6341 125.375 18.2401C124.757 18.8471 123.983 19.2529 123.051 19.4596C122.118 19.6663 121.034 19.7831 119.8 19.8113C118.805 19.8254 117.973 19.8221 117.307 19.8005H117.308ZM122.998 17.4231C123.699 16.9891 124.049 16.3107 124.049 15.3865C124.049 14.9591 123.892 14.5533 123.576 14.167C123.26 13.7818 122.804 13.468 122.208 13.2266C121.611 12.9853 120.908 12.8652 120.094 12.8652C118.874 12.8793 118.012 12.955 117.507 13.0925C117.002 13.2299 116.735 13.4236 116.707 13.6714C116.665 14.0155 116.648 14.5641 116.654 15.3151C116.661 16.0661 116.679 16.6688 116.707 17.1244C116.722 17.4685 116.956 17.7131 117.412 17.8581C117.868 18.0031 118.6 18.0756 119.61 18.0756C121.167 18.0756 122.295 17.8581 122.997 17.4241L122.998 17.4231ZM119.359 11.1901H119.948C121.349 11.1901 122.3 10.9044 122.798 10.332C123.296 9.76064 123.531 9.04753 123.503 8.19266C123.489 7.53149 123.222 7.06294 122.704 6.787C122.185 6.51106 121.344 6.33901 120.18 6.26975C119.83 6.25568 119.331 6.25893 118.687 6.28057C118.042 6.30113 117.579 6.32602 117.299 6.35307C117.101 6.38121 116.947 6.43964 116.836 6.52838C116.724 6.61819 116.668 6.72424 116.668 6.84868V10.3839C116.668 10.7151 116.72 10.9217 116.825 11.004C116.93 11.0862 117.151 11.149 117.488 11.1901C117.979 11.2182 118.602 11.2182 119.36 11.1901H119.359Z" fill="#373F56"/>
<path d="M129.34 19.0354C128.688 18.3256 128.362 17.2261 128.362 15.7382V13.547C128.348 12.5828 128.341 11.6652 128.341 10.7973C128.341 9.92946 128.356 9.16441 128.383 8.50215C128.397 8.25435 128.502 8.07472 128.699 7.96435C128.895 7.85397 129.126 7.79878 129.393 7.79878C129.589 7.79878 129.757 7.82259 129.897 7.87128C130.037 7.91998 130.153 8.00222 130.244 8.11909C130.335 8.23595 130.38 8.39178 130.38 8.58439C130.352 10.5971 130.339 12.23 130.339 13.4842C130.339 14.2979 130.345 14.8974 130.36 15.2827C130.374 15.7923 130.405 16.223 130.454 16.5747C130.503 16.9264 130.665 17.2813 130.938 17.6395C131.211 17.9977 131.635 18.1838 132.21 18.1979C132.996 18.2119 133.652 18.0983 134.177 17.857C134.703 17.6157 135.12 17.3333 135.429 17.0097C135.737 16.6862 136.123 16.2068 136.586 15.5727C136.614 14.3596 136.636 13.0849 136.649 11.7485C136.662 10.4121 136.67 9.33646 136.67 8.5238C136.67 8.33118 136.705 8.18293 136.776 8.07905C136.846 7.97517 136.951 7.90375 137.092 7.86154C137.231 7.82042 137.414 7.79986 137.639 7.79986C137.863 7.79986 138.045 7.81718 138.186 7.85181C138.326 7.88643 138.442 7.95569 138.533 8.05849C138.624 8.16237 138.669 8.31711 138.669 8.5238C138.683 9.07567 138.69 9.71628 138.69 10.4467C138.69 11.1771 138.683 11.9563 138.669 12.783C138.655 14.2298 138.641 15.6776 138.628 17.1244C138.628 17.3722 138.641 17.5832 138.669 17.7553C138.697 17.9273 138.74 18.0756 138.796 18.2C138.838 18.2823 138.902 18.3797 138.985 18.489C139.056 18.5853 139.108 18.6956 139.143 18.8201C139.178 18.9445 139.167 19.0549 139.111 19.1512C138.984 19.399 138.743 19.6057 138.385 19.7713C138.028 19.9368 137.737 19.9844 137.512 19.9163C137.302 19.847 137.105 19.6511 136.923 19.3276C136.74 19.004 136.642 18.4219 136.629 17.5811C136.138 18.16 135.711 18.6177 135.346 18.9553C134.982 19.293 134.544 19.5689 134.032 19.7821C133.52 19.9953 132.913 20.1024 132.212 20.1024C130.95 20.1024 129.993 19.7474 129.34 19.0376V19.0354Z" fill="#373F56"/>
<path d="M144.023 19.294C143.174 18.7703 142.53 18.0431 142.087 17.1125C141.646 16.1819 141.424 15.1312 141.424 13.9603C141.424 12.7061 141.684 11.611 142.203 10.6729C142.721 9.73575 143.391 9.02588 144.212 8.54326C145.033 8.06064 145.891 7.82691 146.789 7.83989C147.601 7.85396 148.296 8.01195 148.871 8.31494C149.446 8.61793 150.014 9.10812 150.574 9.78228C150.588 9.06592 150.595 7.63213 150.595 5.48197C150.595 5.30342 150.627 5.15842 150.69 5.04805C150.753 4.93767 150.851 4.85543 150.984 4.80024C151.117 4.74506 151.296 4.718 151.52 4.718C151.758 4.718 151.947 4.74614 152.088 4.80024C152.228 4.85543 152.331 4.93767 152.393 5.04805C152.456 5.15842 152.488 5.30342 152.488 5.48197V17.514C152.501 17.7618 152.523 17.962 152.551 18.1134C152.578 18.2649 152.621 18.3959 152.677 18.5063C152.719 18.6166 152.769 18.7 152.825 18.7541C152.923 18.8785 152.976 19.0062 152.982 19.136C152.989 19.267 152.936 19.3947 152.825 19.518C152.671 19.6977 152.481 19.8351 152.257 19.9314C152.032 20.0277 151.829 20.0764 151.647 20.0764C151.282 20.0764 151.016 19.9249 150.847 19.6219C150.679 19.3189 150.595 18.7952 150.595 18.0507C150.16 18.767 149.634 19.2843 149.017 19.6014C148.4 19.9184 147.748 20.0764 147.061 20.0764C145.883 20.0764 144.87 19.8145 144.021 19.2908L144.023 19.294ZM149.271 17.8884C149.762 17.5161 150.091 17.0205 150.259 16.4005C150.428 15.7804 150.512 15.0089 150.512 14.0848C150.512 12.5276 150.218 11.387 149.629 10.6631C149.039 9.93919 148.219 9.57776 147.168 9.57776C145.948 9.57776 145.025 9.94676 144.402 10.6837C143.777 11.4206 143.466 12.5546 143.466 14.0848C143.466 15.4082 143.774 16.4762 144.392 17.2889C145.008 18.1026 145.934 18.4954 147.169 18.4673C148.08 18.4532 148.781 18.2606 149.272 17.8884H149.271Z" fill="#373F56"/>
<path d="M157.716 19.294C156.867 18.7703 156.223 18.0431 155.78 17.1125C155.339 16.1819 155.117 15.1312 155.117 13.9603C155.117 12.7061 155.377 11.611 155.896 10.6729C156.415 9.73575 157.084 9.02588 157.905 8.54326C158.726 8.06064 159.585 7.82691 160.482 7.83989C161.295 7.85396 161.989 8.01195 162.564 8.31494C163.139 8.61793 163.707 9.10812 164.267 9.78228C164.281 9.06592 164.288 7.63213 164.288 5.48197C164.288 5.30342 164.32 5.15842 164.383 5.04805C164.446 4.93767 164.544 4.85543 164.677 4.80024C164.81 4.74506 164.989 4.718 165.213 4.718C165.451 4.718 165.641 4.74614 165.781 4.80024C165.921 4.85543 166.024 4.93767 166.086 5.04805C166.149 5.15842 166.181 5.30342 166.181 5.48197V17.514C166.194 17.7618 166.216 17.962 166.244 18.1134C166.271 18.2649 166.314 18.3959 166.371 18.5063C166.412 18.6166 166.462 18.7 166.518 18.7541C166.616 18.8785 166.669 19.0062 166.676 19.136C166.682 19.267 166.629 19.3947 166.518 19.518C166.364 19.6977 166.175 19.8351 165.95 19.9314C165.725 20.0277 165.522 20.0764 165.34 20.0764C164.975 20.0764 164.709 19.9249 164.541 19.6219C164.372 19.3189 164.288 18.7952 164.288 18.0507C163.853 18.767 163.327 19.2843 162.711 19.6014C162.093 19.9184 161.441 20.0764 160.754 20.0764C159.576 20.0764 158.563 19.8145 157.714 19.2908L157.716 19.294ZM162.965 17.8884C163.456 17.5161 163.785 17.0205 163.954 16.4005C164.122 15.7804 164.206 15.0089 164.206 14.0848C164.206 12.5276 163.912 11.387 163.323 10.6631C162.734 9.93919 161.913 9.57776 160.862 9.57776C159.642 9.57776 158.719 9.94676 158.096 10.6837C157.472 11.4206 157.16 12.5546 157.16 14.0848C157.16 15.4082 157.468 16.4762 158.086 17.2889C158.703 18.1026 159.629 18.4954 160.863 18.4673C161.775 18.4532 162.475 18.2606 162.966 17.8884H162.965Z" fill="#373F56"/>
<path d="M170.222 24.0283C170.025 23.8898 169.906 23.7285 169.864 23.5424C169.822 23.3563 169.892 23.1182 170.075 22.8293C170.214 22.6085 170.341 22.4679 170.453 22.4051C170.566 22.3434 170.72 22.3532 170.916 22.4365C171.014 22.4776 171.123 22.522 171.242 22.5707C171.361 22.6183 171.491 22.6702 171.63 22.7254C172.443 23.0695 173.067 23.2427 173.502 23.2427C174.4 23.2427 175.125 22.984 175.679 22.4679C176.233 21.9506 176.618 21.2689 176.836 20.4216C177.053 19.5743 177.141 18.6264 177.1 17.5789C176.567 18.3234 176.009 18.8991 175.427 19.3049C174.844 19.7117 174.242 19.9693 173.618 20.0797C172.994 20.19 172.345 20.176 171.672 20.0385C170.887 19.873 170.224 19.4423 169.685 18.7465C169.145 18.0507 168.874 17.2002 168.874 16.1938V8.68936C168.874 8.35824 168.951 8.12775 169.106 7.99681C169.26 7.86588 169.526 7.80095 169.905 7.80095C170.157 7.80095 170.347 7.82476 170.473 7.87345C170.6 7.92215 170.698 8.01088 170.767 8.14181C170.838 8.27275 170.873 8.46969 170.873 8.73048C170.9 10.2747 170.9 12.203 170.873 14.5187V15.2837C170.915 15.8486 170.979 16.3345 171.062 16.7413C171.146 17.1482 171.335 17.4956 171.63 17.7856C172.022 18.1719 172.668 18.292 173.566 18.147C174.464 18.002 175.277 17.6341 176.006 17.0411C176.735 16.4492 177.1 15.7317 177.1 14.8909V13.837C177.113 12.1283 177.127 10.4261 177.141 8.73048C177.141 8.3723 177.204 8.13099 177.331 8.00655C177.457 7.88211 177.689 7.81393 178.024 7.79987C178.305 7.78688 178.519 7.80744 178.666 7.86155C178.814 7.91673 178.915 8.01304 178.971 8.15047C179.028 8.2879 179.063 8.4816 179.077 8.7294C179.105 9.30833 179.119 10.78 179.119 13.1433C179.119 15.5067 179.105 17.1785 179.077 18.1567C179.077 18.4879 179.056 18.8114 179.014 19.1285C178.916 20.3275 178.674 21.3609 178.289 22.2298C177.903 23.0977 177.332 23.7761 176.574 24.2663C175.817 24.7555 174.849 25 173.672 25C172.34 25 171.19 24.6765 170.222 24.0283Z" fill="#373F56"/>
<path d="M181.287 19.5527C180.993 19.2421 180.845 18.8742 180.845 18.4467C180.845 18.0193 180.996 17.6644 181.298 17.382C181.6 17.0995 181.988 16.9578 182.465 16.9578C182.871 16.9578 183.229 17.1028 183.538 17.3917C183.846 17.6806 184 18.0399 184 18.4662C184 18.8926 183.849 19.241 183.547 19.5516C183.246 19.8621 182.856 20.0169 182.38 20.0169C181.945 20.0169 181.581 19.8621 181.287 19.5516V19.5527Z" fill="#373F56"/>
</g>
<defs>
<clipPath id="clip0_5_235">
<rect width="184" height="25" fill="white"/>
</clipPath>
</defs>
</svg>
